<?xml version="1.0" encoding="utf-8"?>
<!-- Generator: Adobe Illustrator 24.1.0, SVG Export Plug-In . SVG Version: 6.00 Build 0)  -->
<svg version="1.1" id="Layer_1" xmlns="http://www.w3.org/2000/svg" xmlns:xlink="http://www.w3.org/1999/xlink" x="0px" y="0px"
	 viewBox="0 0 1125 396" style="enable-background:new 0 0 1125 396;" xml:space="preserve">
<style type="text/css">
	.st0{fill:#31663A;}
	.st1{fill:#333333;}
</style>
<g>
	<path class="st0" d="M525.91,333.99c-8.31-4.81-14.84-11.35-19.61-19.64c-4.77-8.28-7.14-17.45-7.11-27.51
		c0.03-10.06,2.44-19.22,7.25-27.48c4.81-8.26,11.38-14.77,19.71-19.54c8.33-4.77,17.52-7.14,27.59-7.11
		c15.67,0.04,28.62,5.73,38.84,17.07l-13.82,13.31c-6.65-7.85-14.96-11.79-24.93-11.82c-6.48-0.02-12.39,1.44-17.71,4.38
		c-5.33,2.94-9.52,7.11-12.58,12.52c-3.06,5.41-4.6,11.65-4.62,18.7c-0.02,7.06,1.49,13.3,4.52,18.73
		c3.03,5.43,7.21,9.62,12.52,12.58c5.31,2.97,11.21,4.45,17.69,4.47c10.93,0.03,20.08-4.49,27.46-13.57l13.9,13.24
		c-5.14,6.18-11.22,10.88-18.24,14.1c-7.02,3.22-14.79,4.82-23.3,4.8C543.4,341.21,534.22,338.8,525.91,333.99z"/>
	<path class="st0" d="M631.76,334.25c-8.26-4.81-14.75-11.38-19.46-19.71c-4.72-8.33-7.07-17.48-7.04-27.44
		c0.03-9.96,2.42-19.1,7.18-27.4c4.76-8.31,11.28-14.84,19.56-19.61s17.5-7.14,27.66-7.11c10.16,0.03,19.36,2.44,27.62,7.25
		c8.26,4.81,14.75,11.38,19.47,19.71c4.72,8.33,7.07,17.48,7.04,27.44c-0.02,9.96-2.42,19.1-7.18,27.4
		c-4.76,8.31-11.28,14.84-19.56,19.61c-8.28,4.77-17.5,7.14-27.66,7.11C649.23,341.48,640.02,339.06,631.76,334.25z M677,318.48
		c5.33-2.98,9.52-7.18,12.58-12.59c3.06-5.41,4.6-11.6,4.62-18.56c0.02-6.96-1.49-13.16-4.52-18.58
		c-3.03-5.42-7.21-9.64-12.52-12.65c-5.31-3.01-11.16-4.52-17.54-4.54c-6.38-0.02-12.22,1.47-17.5,4.45
		c-5.28,2.99-9.45,7.18-12.51,12.59c-3.06,5.41-4.6,11.6-4.62,18.56c-0.02,6.96,1.49,13.16,4.52,18.58
		c3.03,5.43,7.18,9.64,12.45,12.65c5.27,3.01,11.09,4.53,17.47,4.54C665.81,322.95,671.67,321.47,677,318.48z"/>
	<path class="st0" d="M718.27,235.45l21.18,0.05l21.32,62.73l3.74,13.21l1.16,0l4.1-13.19l22.5-62.62l21.18,0.05l-38.13,103.79
		l-20.6-0.05L718.27,235.45z"/>
	<path class="st0" d="M827.38,235.72l19.59,0.05l-0.26,103.89l-19.59-0.05L827.38,235.72z"/>
	<path class="st0" d="M870.61,235.83l35.11,0.09c10.83,0.03,20.26,2.23,28.28,6.6c8.02,4.37,14.19,10.48,18.53,18.33
		c4.33,7.85,6.49,16.9,6.46,27.15c-0.03,10.25-2.23,19.29-6.6,27.12c-4.37,7.82-10.58,13.9-18.62,18.23
		c-8.04,4.33-17.48,6.48-28.31,6.46l-35.11-0.09L870.61,235.83z M904.64,321.23c11.22,0.03,19.79-2.92,25.71-8.86
		c5.91-5.93,8.89-14.07,8.91-24.43c0.03-10.35-2.91-18.51-8.79-24.47c-5.89-5.96-14.44-8.96-25.66-8.99l-14.65-0.04l-0.17,66.74
		L904.64,321.23z"/>
	<path class="st0" d="M996.91,265.61l-14.97,10.84l-9.54-14.68l29.22-20.96l14.36,0.04l-0.25,99.24l-19.01-0.05L996.91,265.61z"/>
	<path class="st0" d="M1053.04,332.38l20.53-28.57l-0.87-0.87c-2.23,0.96-4.74,1.44-7.55,1.43c-5.03-0.01-9.84-1.39-14.43-4.15
		c-4.59-2.75-8.3-6.58-11.14-11.48c-2.84-4.91-4.25-10.39-4.24-16.45c0.02-6.34,1.65-12.1,4.91-17.28
		c3.25-5.18,7.57-9.2,12.94-12.07c5.38-2.87,11.11-4.3,17.21-4.28c6.96,0.02,13.15,1.6,18.56,4.74c5.41,3.14,9.61,7.36,12.59,12.66
		c2.98,5.3,4.47,11.02,4.45,17.18c-0.02,6.16-1.22,11.92-3.6,17.31c-2.39,5.38-5.9,11.34-10.56,17.86l-24.03,34.14L1053.04,332.38z
		 M1082.39,283.95c3.35-3.09,5.02-6.98,5.04-11.66c0.01-4.68-1.65-8.54-4.98-11.61c-3.33-3.06-7.22-4.6-11.67-4.61
		c-4.55-0.01-8.49,1.51-11.84,4.55c-3.34,3.05-5.02,6.91-5.03,11.58c-0.01,4.68,1.65,8.57,4.98,11.68
		c3.33,3.11,7.27,4.67,11.81,4.68C1075.15,288.58,1079.05,287.04,1082.39,283.95z"/>
</g>
<path id="path4229" class="st0" d="M245.86,59c-35.2,0-60.97,26-62.27,74.97c-1.22,46.07,16.44,66.33,36.06,74.92
	c0.87-1.03,1.73-2.07,2.58-3.13c8.63-10.71,14.43-21.45,20.28-32.85c-1.3,0.27-2.64,0.44-4.05,0.44c-7.96,0-17.11-20.16-15.94-39.38
	c1.17-19.22,7.32-37.03,18.55-37.03c8.1,0,18.37,14.21,17.77,37.03c-0.65,24.33-17.82,62.37-43.86,89.48
	c-34.52-31.37-51.25-58.68-104.32-58.68c-23.85,0-48.04,21.48-48.75,48.33c-0.76,28.71,36.22,78.08,99.74,78.08
	c16.16,0,39.02-6.21,56.7-18.9c5.33,3,11.01,5.81,17.11,8.37c-10.25,19.59-18.11,39.12-22.7,56.34h42.16
	c3.76-15.02,9.64-30.65,17.02-45.71c11.84,2.12,31.17,3.32,45.69,3.32c64.65,0,99.53-51.99,100.29-80.52
	c0.37-13.92-8.57-50.82-49.28-50.82c-40.94,0-85.5,39.6-117.9,88.2c-2.2-0.87-4.96-1.83-7.84-2.87
	c30.57-29.52,54.8-75.93,55.82-114.63C300.35,72.77,262.42,59,245.86,59z M366.04,202.03c9.65,0,13.52,7.1,13.36,13.08
	c-0.44,16.61-38.47,42.27-65.95,42.27c-6.63,0-12.36-0.34-18.29-0.97C317.08,225.11,341.65,202.03,366.04,202.03L366.04,202.03z
	 M113.75,202.93c27.06,0,44.6,22.34,70.7,44.96c-9.05,5.04-18.08,7.97-26.61,7.97c-30.16,0-56.98-27.66-56.67-39.34
	C101.35,209.5,106.48,202.93,113.75,202.93L113.75,202.93z"/>
<g>
	<path class="st1" d="M558.38,70.58c0-4.21-0.16-6.64-0.81-10.36h27.36c-0.49,2.75-0.81,5.99-0.81,10.36v0.97h41.77
		c8.58,0,13.92-0.16,19.43-0.65c-0.49,3.56-0.65,6.8-0.65,12.79v18.62c0,5.18,0.16,9.39,0.81,13.6h-23.31v15.54
		c0,10.36,0,12.3,0.49,16.03c-4.37-0.32-9.23-0.49-16.84-0.49H584.6c-1.78,4.05-2.1,4.69-3.24,6.96h39.01
		c7.93,0,11.33-0.16,15.22-0.65c-0.49,4.69-0.65,9.55-0.65,15.86v26.87c0,6.31,0.16,10.68,0.81,16.35h-24.77v-5.83h-77.06v5.83
		h-24.77c0.49-6.8,0.81-11.49,0.81-16.51v-26.71c0-7.77-0.16-11.33-0.65-15.86c4.69,0.49,8.42,0.65,14.57,0.65h30.43
		c1.78-3.08,2.43-4.05,3.72-6.96h-18.94c-7.61,0-11.66,0.16-16.67,0.49c0.32-4.05,0.49-6.31,0.49-16.03v-15.54h-23.47
		c0.65-4.05,0.81-7.77,0.81-13.6V83.69c0-5.5-0.16-9.06-0.65-12.79c5.5,0.49,10.68,0.65,19.43,0.65h39.34V70.58z M620.86,93.73
		h-96.8v6.31c2.27,0.32,4.21,0.32,7.12,0.32h83.37c2.27,0,4.21,0,6.31-0.16V93.73z M533.94,184.87h77.06v-9.55h-77.06V184.87z
		 M546.89,127.56h51.32v-7.93h-51.32V127.56z"/>
	<path class="st1" d="M809.29,117.69c-1.46,4.05-1.46,4.05-4.86,16.03c-3.24,11.66-9.23,26.06-15.54,36.91
		c2.75,5.99,4.05,8.42,6.47,12.14c1.62-5.67,2.27-10.68,2.91-20.24c5.18,6.8,9.23,11.01,14.57,15.22
		c-1.62,13.27-3.4,20.4-6.15,25.58c-2.75,5.34-6.8,8.26-11.49,8.26c-7.45,0-14.89-6.8-21.69-19.75c-6.96,7.12-14.57,13.6-22.83,19.1
		c-5.18-8.58-8.74-12.95-15.54-19.26c13.6-7.45,20.24-12.95,29.14-23.96c-3.56-11.98-6.47-27.03-8.26-42.57
		c-0.16,1.46-0.16,1.46-0.16,3.72c-0.16,13.92-1.13,29.95-2.27,38.69c-1.94,14.89-6.64,18.78-22.34,18.78c-1.62,0-3.08,0-6.48-0.32
		c-0.49-5.67-0.81-8.09-1.78-12.79c-3.72,15.7-8.42,25.74-19.1,39.66c-6.8-7.61-11.33-11.49-19.91-17
		c8.42-9.07,11.98-14.89,15.22-24.44c-10.2,6.15-13.92,7.93-30.76,15.22c-2.75,1.3-5.18,2.43-7.28,3.56l-5.18-26.39
		c3.4-0.65,5.83-1.29,14.08-4.05v-37.72h-1.13c-4.37,0-6.96,0.16-10.36,0.65V99.23c3.56,0.49,6.15,0.65,10.36,0.65h1.13V80.29
		c0-8.9-0.16-13.11-0.97-18.29h25.09c-0.81,5.34-0.97,9.07-0.97,18.45v19.43c3.56,0,6.15-0.16,8.42-0.49v23.15
		c-2.75-0.32-4.69-0.32-8.42-0.49v28.33c2.1-1.13,3.24-1.62,6.31-3.24v23.15c4.05-13.76,5.99-34,5.99-62.49V97.13
		c0-6.64-0.32-13.44-0.65-18.45c3.56,0.49,9.39,0.81,16.19,0.81h31.73c0-2.43,0-2.43,0-7.28c0-4.21-0.32-7.45-0.81-11.01h25.42
		c-0.65,3.72-0.97,7.93-0.97,13.6c0,0.81,0,1.13,0.16,4.69h9.23c-2.91-5.83-4.37-8.09-8.42-13.27l16.35-7.45
		c5.02,5.83,6.96,8.74,10.85,15.54l-10.2,5.18c5.83-0.16,8.74-0.32,12.79-0.97v24.93c-6.15-0.49-14.08-0.81-20.24-0.81h-9.87
		c0,2.27,0,2.27,0.16,7.45c0.16,6.64,1.3,17.65,2.91,28.01c3.4-9.87,5.83-20.88,6.64-28.49L809.29,117.69z M727.87,136.95
		c-0.81,11.98-1.29,17-2.75,26.22c0.97,0,2.59,0.16,5.18,0.32c2.27,0,3.4-1.13,3.72-3.56c0.65-5.18,0.97-11.01,1.13-22.99H727.87z
		 M728.51,102.63c0,8.9,0,8.9,0,11.66h16.19c3.72,0,6.96-0.16,10.04-0.32c-0.32-3.08-0.65-6.8-0.97-11.33H728.51z"/>
	<path class="st1" d="M908.2,192.64c0,9.55,0.32,15.22,0.97,20.07h-26.39c0.65-5.02,0.97-10.85,0.97-20.07v-25.42h-26.55l19.1,8.74
		c-11.82,15.86-23.15,26.06-38.85,35.45c-6.48-8.74-10.04-12.79-17-19.1c10.68-4.69,16.67-8.74,25.09-16.35
		c3.72-3.4,5.34-5.34,7.93-8.74h-7.28c-8.09,0-12.95,0.16-17.81,0.65c0.65-4.86,0.81-9.07,0.81-17.97V92.27
		c0-8.74-0.16-12.79-0.81-17.81h25.42c-0.49,4.86-0.65,8.9-0.65,17.48v54.23h97.29c10.52,0,15.7-0.16,20.07-0.81v22.83
		c-5.5-0.65-11.33-0.97-19.91-0.97h-12.79c10.04,11.01,17.16,15.86,34.8,23.47c-6.64,7.28-9.71,11.33-15.7,20.72
		c-10.36-5.99-14.73-9.07-21.37-14.73c-7.61-6.47-12.63-11.66-19.59-20.4l17.97-9.06H908.2V192.64z M956.12,127.24
		c0,5.67,0.16,10.2,0.49,14.08c-4.05-0.32-9.23-0.49-14.89-0.49h-65.72c-5.83,0-11.01,0.16-14.89,0.49
		c0.32-4.69,0.49-8.58,0.49-14.25V78.19c0-5.34-0.16-9.87-0.49-13.92c3.89,0.32,8.74,0.49,15.22,0.49h65.56
		c6.15,0,10.68-0.16,14.73-0.49c-0.32,4.37-0.49,8.42-0.49,14.08V127.24z M885.38,87.09h46.46v-5.5h-46.46V87.09z M885.38,106.19
		h46.46v-5.5h-46.46V106.19z M885.38,125.46h46.46v-5.67h-46.46V125.46z"/>
</g>
</svg>
